<?xml version="1.0" encoding="utf-8"?>
<!-- Generator: Adobe Illustrator 23.0.1, SVG Export Plug-In . SVG Version: 6.00 Build 0)  -->
<svg version="1.1" id="Livello_1" xmlns="http://www.w3.org/2000/svg" xmlns:xlink="http://www.w3.org/1999/xlink" x="0px" y="0px"
	 width="386.9px" height="500px" viewBox="0 0 386.9 500" enable-background="new 0 0 386.9 500" xml:space="preserve">
<g>
	<rect x="0.1" fill="#FFFFFF" width="386.8" height="500"/>
	<g>
		<rect y="486.6" fill="#00B74F" width="129.1" height="13.4"/>
		<rect x="128.9" y="486.6" fill="#E3E3E3" width="129.1" height="13.4"/>
		<rect x="257.8" y="486.6" fill="#E5002B" width="129.1" height="13.4"/>
	</g>
	<g>
		<path fill="#1A1659" d="M55,451.8c-0.3-0.3-0.5-1-0.1-1.4l6.3-7.2c0.3-0.4,0.8-0.4,1.2-0.1c3.7,3,8.7,5.7,14.7,5.7
			c5.8,0,9.1-2.7,9.1-6.7c0-3.3-2-5.3-8.7-6.3l-3-0.4c-11.4-1.6-17.7-6.9-17.7-16.7c0-10.3,7.7-17.1,19.8-17.1
			c7.3,0,14.3,2.2,19,5.8c0.5,0.3,0.5,0.7,0.1,1.2l-5,7.5c-0.3,0.4-0.7,0.5-1.1,0.3c-4.2-2.9-8.4-4.2-13-4.2c-4.9,0-7.5,2.6-7.5,6.1
			c0,3.3,2.3,5.3,8.7,6.1l3,0.4c11.6,1.6,17.7,6.8,17.7,17c0,10.1-7.5,17.7-22,17.7C67.8,459.4,59.3,456,55,451.8z"/>
		<path fill="#1A1659" d="M105,403.4c0-0.5,0.3-0.8,0.8-0.8h35.9c0.5,0,0.8,0.3,0.8,0.8v8.8c0,0.5-0.3,0.8-0.8,0.8h-24.2
			c-0.3,0-0.5,0.1-0.5,0.5v11.1c0,0.3,0.1,0.5,0.5,0.5h20.1c0.5,0,0.8,0.3,0.8,0.8v8.7c0,0.5-0.3,0.8-0.8,0.8h-20.1
			c-0.3,0-0.5,0.1-0.5,0.5v11.6c0,0.3,0.1,0.5,0.5,0.5h24.1c0.5,0,0.8,0.3,0.8,0.8v8.8c0,0.5-0.3,0.8-0.8,0.8h-35.8
			c-0.5,0-0.8-0.3-0.8-0.8V403.4z"/>
		<path fill="#1A1659" d="M180.7,458.4c-0.7,0-1-0.3-1.2-0.8l-9.7-20.5h-7.5c-0.3,0-0.5,0.1-0.5,0.5v20c0,0.5-0.3,0.8-0.8,0.8h-10.5
			c-0.5,0-0.8-0.3-0.8-0.8v-54.4c0-0.5,0.3-0.8,0.8-0.8h22.3c11.4,0,19,7.2,19,17.4c0,7.2-3.8,12.8-9.9,15.5l11,22
			c0.3,0.5,0,1-0.5,1h-11.7V458.4z M179.9,420c0-4.2-3-6.9-7.6-6.9h-9.9c-0.3,0-0.5,0.1-0.5,0.5v12.9c0,0.3,0.1,0.5,0.5,0.5h9.9
			C176.9,426.9,179.9,424.2,179.9,420z"/>
		<path fill="#1A1659" d="M199.5,403.4c0-0.5,0.3-0.8,0.8-0.8h10.5c0.5,0,0.8,0.3,0.8,0.8v54.4c0,0.5-0.3,0.8-0.8,0.8h-10.3
			c-0.5,0-0.8-0.3-0.8-0.8v-54.4H199.5z"/>
		<path fill="#1A1659" d="M220.7,403.4c0-0.5,0.3-0.8,0.8-0.8h35.9c0.5,0,0.8,0.3,0.8,0.8v8.8c0,0.5-0.3,0.8-0.8,0.8h-24.1
			c-0.3,0-0.5,0.1-0.5,0.5v11.1c0,0.3,0.1,0.5,0.5,0.5h20.1c0.5,0,0.8,0.3,0.8,0.8v8.7c0,0.5-0.3,0.8-0.8,0.8h-20.1
			c-0.3,0-0.5,0.1-0.5,0.5v11.6c0,0.3,0.1,0.5,0.5,0.5h24.1c0.5,0,0.8,0.3,0.8,0.8v8.8c0,0.5-0.3,0.8-0.8,0.8h-35.9
			c-0.5,0-0.8-0.3-0.8-0.8V403.4z"/>
		<path fill="#1A1659" d="M298.4,403.4c0.1-0.5,0.5-0.8,1.1-0.8h10.3c0.5,0,1,0.3,1.1,0.8l18.9,54.4c0.1,0.5,0,0.8-0.5,0.8h-10.7
			c-0.5,0-1-0.3-1.1-0.8l-3.3-9.8h-19.6l-3.1,9.8c-0.1,0.5-0.5,0.8-1.1,0.8h-10.7c-0.5,0-0.7-0.3-0.5-0.8L298.4,403.4z M310.9,437.6
			l-6.4-19.6h-0.3l-6.4,19.6H310.9z"/>
	</g>
	<g>
		<g>
			<polygon fill="#1A1659" points="193.4,372.9 57.2,286.5 140.6,286.5 			"/>
			<polygon fill="#1A1659" points="193.4,372.9 329.7,286.5 246.2,286.5 			"/>
			<polygon fill="#1A1659" points="193.4,147.1 140.6,286.5 193.4,286.5 246.2,286.5 			"/>
			
				<linearGradient id="SVGID_1_" gradientUnits="userSpaceOnUse" x1="140.563" y1="172.2786" x2="246.2012" y2="172.2786" gradientTransform="matrix(1 0 0 -1 0 502)">
				<stop  offset="0" style="stop-color:#31ECFF"/>
				<stop  offset="4.937099e-02" style="stop-color:#2DE2FF"/>
				<stop  offset="0.2964" style="stop-color:#1BB2FF"/>
				<stop  offset="0.5147" style="stop-color:#0E90FF"/>
				<stop  offset="0.694" style="stop-color:#067BFF"/>
				<stop  offset="0.8118" style="stop-color:#0373FF"/>
			</linearGradient>
			<polygon fill="url(#SVGID_1_)" points="140.6,286.5 193.4,372.9 246.2,286.5 			"/>
		</g>
		
			<linearGradient id="SVGID_2_" gradientUnits="userSpaceOnUse" x1="271.6797" y1="430.3915" x2="177.5109" y2="171.665" gradientTransform="matrix(1 0 0 -1 0 502)">
			<stop  offset="0" style="stop-color:#31ECFF"/>
			<stop  offset="4.882737e-02" style="stop-color:#2DE2FF"/>
			<stop  offset="0.2932" style="stop-color:#1BB2FF"/>
			<stop  offset="0.5091" style="stop-color:#0E90FF"/>
			<stop  offset="0.6863" style="stop-color:#067BFF"/>
			<stop  offset="0.8028" style="stop-color:#0373FF"/>
		</linearGradient>
		<path fill="url(#SVGID_2_)" d="M193.4,147.1l22.8,60.2h-28.8l-19.6,51.9h68l10.3,27.4h83.5L231,56.8c-25.1,0-50.1,0-75.2,0
			L57.2,286.5h83.5L193.4,147.1z"/>
	</g>
</g>
</svg>
